<?xml version="1.0" encoding="UTF-8"?>
<svg width="191px" height="149px" viewBox="0 0 191 149" version="1.1" xmlns="http://www.w3.org/2000/svg" xmlns:xlink="http://www.w3.org/1999/xlink">
    <!-- Generator: Sketch 49.3 (51167) - http://www.bohemiancoding.com/sketch -->
    <title>Group 4</title>
    <desc>Created with Sketch.</desc>
    <defs></defs>
    <g id="Page-1" stroke="none" stroke-width="1" fill="none" fill-rule="evenodd">
        <g id="Group-4" transform="translate(-12.000000, 2.000000)" stroke="#FFFFFF" stroke-width="3">
            <g id="Group-2" transform="translate(128.000000, 0.000000)">
                <polygon id="Path-2" points="20.9355469 25.8896484 36.6593771 46 68.2773438 9.73828125"></polygon>
                <polygon id="Path-3" points="12.1347656 16.2451172 0 0 63.7900391 7.13085937"></polygon>
                <polygon id="Path-4" points="28 37.0030697 20.5 26.6057307 13.1445312 47.0712891"></polygon>
                <path d="M12.4404297,16.3466797 L11.3867188,49.2714844" id="Path-5"></path>
            </g>
            <path d="M21.5371094,53.6850558 C27.2085982,49.5522877 32.8075566,46.8465585 38.3339844,45.5678683 C46.6236261,43.6498329 45.8952503,40.9036577 56.6191406,45.5678683 C63.7684009,48.677342 69.4506925,53.7997378 73.6660156,60.9350558 C75.3593857,66.4662925 75.3593857,74.3035321 73.6660156,84.4467745 C71.1259605,99.6616381 71.0020235,105.120291 64.7050781,114.610837 C58.4081328,124.101383 47.9511719,128.247556 43.1425781,130.450681 C38.3339844,132.653806 30.03125,132.454587 24.4941406,130.450681 C18.9570312,128.446775 11,123.894427 11,114.610837 C11,105.327247 13.5957031,98.7709933 17.5664062,94.1538058 C21.5371094,89.5366183 30.2089844,84.4467745 43.1425781,77.392087 C51.764974,72.688962 65.8522135,67.203285 85.4042969,60.9350558 L141.134766,53.6850558" id="Path-6" stroke-dasharray="9" transform="translate(76.067383, 87.514600) rotate(-19.000000) translate(-76.067383, -87.514600) "></path>
        </g>
    </g>
</svg>